<svg width="44" height="43" viewBox="0 0 44 43" fill="none" xmlns="http://www.w3.org/2000/svg">
<path d="M9.19199 8.53006C10.5159 8.53006 11.5891 7.43377 11.5891 6.08143C11.5891 4.7291 10.5159 3.63281 9.19199 3.63281C7.86813 3.63281 6.79492 4.7291 6.79492 6.08143C6.79492 7.43377 7.86813 8.53006 9.19199 8.53006Z" fill="white" stroke="#39B3FF" stroke-width="2.77778" stroke-miterlimit="10"/>
<path d="M4.39648 16.6912C4.39648 16.6912 5.19551 13.1725 6.79356 12.3563C8.3916 11.5401 9.98965 11.5401 11.5877 12.3563C13.1857 13.1725 13.9848 16.6912 13.9848 16.6912" fill="white"/>
<path d="M4.39648 16.6912C4.39648 16.6912 5.19551 13.1725 6.79356 12.3563C8.3916 11.5401 9.98965 11.5401 11.5877 12.3563C13.1857 13.1725 13.9848 16.6912 13.9848 16.6912" stroke="#39B3FF" stroke-width="2.77778" stroke-linecap="round" stroke-linejoin="round"/>
<path d="M37.151 16.1394C38.4748 16.1394 39.5481 15.0431 39.5481 13.6908C39.5481 12.3385 38.4748 11.2422 37.151 11.2422C35.8271 11.2422 34.7539 12.3385 34.7539 13.6908C34.7539 15.0431 35.8271 16.1394 37.151 16.1394Z" fill="white" stroke="#39B3FF" stroke-width="2.77778" stroke-miterlimit="10"/>
<path d="M32.3555 24.3025C32.3555 24.3025 33.1545 20.7838 34.7525 19.9676C36.3506 19.1514 37.9486 19.1514 39.5467 19.9676C41.1447 20.7838 41.9438 24.3017 41.9438 24.3017" fill="white"/>
<path d="M32.3555 24.3025C32.3555 24.3025 33.1545 20.7838 34.7525 19.9676C36.3506 19.1514 37.9486 19.1514 39.5467 19.9676C41.1447 20.7838 41.9438 24.3017 41.9438 24.3017" stroke="#39B3FF" stroke-width="2.77778" stroke-linecap="round" stroke-linejoin="round"/>
<path d="M16.3775 33.0222C17.7014 33.0222 18.7746 31.926 18.7746 30.5736C18.7746 29.2213 17.7014 28.125 16.3775 28.125C15.0537 28.125 13.9805 29.2213 13.9805 30.5736C13.9805 31.926 15.0537 33.0222 16.3775 33.0222Z" fill="white" stroke="#39B3FF" stroke-width="2.77778" stroke-miterlimit="10"/>
<path d="M11.5827 41.1845C11.5827 41.1845 12.3817 37.6658 13.9798 36.8496C15.5778 36.0334 17.1759 36.0334 18.7739 36.8496C20.372 37.6658 21.171 41.1837 21.171 41.1837M34.402 8.64066C31.0309 4.5784 25.9987 2 20.3776 2C18.1643 2 16.0436 2.39994 14.0788 3.13208M23.9196 39.197C30.482 37.8878 35.7947 33.0126 37.8442 26.6258L23.9196 39.197ZM2.06952 19.1306C2.02289 19.6767 1.99969 20.2246 2 20.7728C2 27.2812 5.24244 33.0159 10.1676 36.3844" fill="white"/>
<path d="M11.5827 41.1845C11.5827 41.1845 12.3817 37.6658 13.9798 36.8496C15.5778 36.0334 17.1759 36.0334 18.7739 36.8496C20.372 37.6658 21.171 41.1837 21.171 41.1837M34.402 8.64066C31.0309 4.5784 25.9987 2 20.3776 2C18.1643 2 16.0436 2.39994 14.0788 3.13208M23.9196 39.197C30.482 37.8878 35.7947 33.0126 37.8442 26.6258M2.06952 19.1306C2.02289 19.6767 1.99969 20.2246 2 20.7728C2 27.2812 5.24244 33.0159 10.1676 36.3844" stroke="#39B3FF" stroke-width="2.77778" stroke-linecap="round" stroke-linejoin="round"/>
</svg>
