<svg width="40" height="40" viewBox="0 0 40 40" fill="none" xmlns="http://www.w3.org/2000/svg">
<path d="M16.666 8.33268C15.7455 8.33268 14.9993 9.07887 14.9993 9.99935C14.9993 10.9198 15.7455 11.666 16.666 11.666H29.9993C30.9198 11.666 31.666 10.9198 31.666 9.99935C31.666 9.07887 30.9198 8.33268 29.9993 8.33268H16.666Z" fill="#39B3FF"/>
<path d="M29.9993 18.3327L16.666 18.3327C15.7455 18.3327 14.9993 17.5865 14.9993 16.666C14.9993 15.7455 15.7455 14.9993 16.666 14.9993L29.9993 14.9994C30.9198 14.9994 31.666 15.7455 31.666 16.666C31.666 17.5865 30.9198 18.3327 29.9993 18.3327Z" fill="#39B3FF"/>
<path d="M16.666 21.666C15.7455 21.666 14.9993 22.4122 14.9993 23.3327C14.9993 24.2532 15.7455 24.9993 16.666 24.9993H21.666C22.5865 24.9993 23.3327 24.2532 23.3327 23.3327C23.3327 22.4122 22.5865 21.666 21.666 21.666H16.666Z" fill="#39B3FF"/>
<path fill-rule="evenodd" clip-rule="evenodd" d="M8.33268 36.666V21.666H6.66602C3.90459 21.666 1.66602 19.4274 1.66602 16.666V6.66602C1.66602 3.90459 3.90459 1.66602 6.66602 1.66602H33.3327C36.0941 1.66602 38.3327 3.90459 38.3327 6.66602V36.666C38.3327 37.2665 38.0097 37.8205 37.4872 38.1163C36.9647 38.4122 36.3234 38.4041 35.8085 38.0952L28.591 33.7647L24.5112 37.8445C23.8603 38.4954 22.805 38.4954 22.1542 37.8445L18.0743 33.7647L10.8568 38.0952C10.342 38.4041 9.7007 38.4122 9.17818 38.1163C8.65567 37.8205 8.33268 37.2665 8.33268 36.666ZM4.99935 6.66602C4.99935 5.74554 5.74554 4.99935 6.66602 4.99935C7.58649 4.99935 8.33268 5.74554 8.33268 6.66602V18.3327H6.66602C5.74554 18.3327 4.99935 17.5865 4.99935 16.666V6.66602ZM11.666 6.66602C11.666 6.08162 11.5658 5.52065 11.3815 4.99935H33.3327C34.2532 4.99935 34.9994 5.74554 34.9994 6.66602V33.7224L29.1902 30.2369C28.5344 29.8434 27.695 29.9467 27.1542 30.4875L23.3327 34.309L19.5112 30.4875C18.9704 29.9467 18.131 29.8434 17.4752 30.2369L11.666 33.7224V6.66602Z" fill="#39B3FF"/>
</svg>
