<svg width="44" height="44" viewBox="0 0 44 44" fill="none" xmlns="http://www.w3.org/2000/svg">
<path d="M30.0016 16.0008C30.0016 19.714 28.5265 23.2752 25.9009 25.9008C23.2752 28.5265 19.714 30.0016 16.0008 30.0016C12.2876 30.0016 8.7264 28.5265 6.10074 25.9008C3.47508 23.2752 2 19.714 2 16.0008C2 12.2875 3.47508 8.72639 6.10074 6.10073C8.7264 3.47508 12.2876 2 16.0008 2C19.714 2 23.2752 3.47508 25.9009 6.10073C28.5265 8.72639 30.0016 12.2875 30.0016 16.0008Z" stroke="#39B3FF" stroke-width="2.25" stroke-linecap="round" stroke-linejoin="round"/>
<path d="M14.0526 29.2155C13.8718 27.1391 14.1568 25.0485 14.8868 23.0962C15.6169 21.144 16.7736 19.3794 18.2726 17.9313C19.7716 16.4831 21.575 15.3878 23.5512 14.7255C25.5274 14.0631 27.6266 13.8503 29.6955 14.1026M35.9959 16.5068C37.6769 17.6764 39.0808 19.2007 40.1087 20.972C41.1366 22.7433 41.7634 24.7185 41.9449 26.7583C42.1263 28.7982 41.8581 30.853 41.1591 32.778C40.4601 34.7029 39.3473 36.451 37.8992 37.8991C36.4511 39.3472 34.703 40.46 32.778 41.159C30.8531 41.8581 28.7982 42.1263 26.7584 41.9448C24.7185 41.7633 22.7433 41.1365 20.972 40.1086C19.2007 39.0808 17.6765 37.6768 16.5068 35.9958M11.0005 3L29.0015 21.001M3 11.0004L21.001 29.0014" stroke="#39B3FF" stroke-width="3.25" stroke-linecap="round" stroke-linejoin="round"/>
</svg>
