<svg width="44" height="44" viewBox="0 0 44 44" fill="none" xmlns="http://www.w3.org/2000/svg">
<path d="M21.9993 42C24.2163 42 42 34.0185 42 24.599V4.05538C36.753 4.05436 21.9993 2 21.9993 2C21.9993 2 7.23259 4.05436 2 4.05436V24.598C2 34.0195 19.7824 42 21.9993 42Z" stroke="#39B3FF" stroke-width="2.08333" stroke-linecap="round" stroke-linejoin="round"/>
<path d="M28.4382 14.582H15.5623C12.1301 14.582 9.34766 16.7614 9.34766 19.4497V26.861C9.34766 29.5494 12.1301 31.7287 15.5623 31.7287H28.4382C31.8705 31.7287 34.6529 29.5494 34.6529 26.861V19.4497C34.6529 16.7614 31.8705 14.582 28.4382 14.582Z" stroke="#39B3FF" stroke-width="2.08333" stroke-linecap="round" stroke-linejoin="round"/>
<path d="M15.2494 20.2969H34.6516M9.34766 26.0128H28.7499" stroke="#39B3FF" stroke-width="2.08333" stroke-linecap="round" stroke-linejoin="round"/>
<path d="M21.9807 12.6315C24.3022 12.6315 26.1841 11.1575 26.1841 9.33918C26.1841 7.52089 24.3022 6.04688 21.9807 6.04688C19.6593 6.04688 17.7773 7.52089 17.7773 9.33918C17.7773 11.1575 19.6593 12.6315 21.9807 12.6315Z" stroke="#39B3FF" stroke-width="2.08333" stroke-linecap="round" stroke-linejoin="round"/>
</svg>
