<svg width="176" height="120" viewBox="0 0 176 120" fill="none" xmlns="http://www.w3.org/2000/svg">
<path d="M101.319 63.3115C101.319 41.7783 106.161 25.8848 115.846 15.6309C125.644 5.37695 139.544 0.25 157.545 0.25V20.9287C152.304 20.9287 147.633 21.4414 143.531 22.4668C139.544 23.4922 136.126 25.3721 133.277 28.1064C130.543 30.8408 128.435 34.5436 126.954 39.2148C125.473 43.8861 124.618 49.8105 124.391 56.9883H156.861V101.422H101.319V63.3115ZM0.489258 63.3115C0.489258 41.7783 5.33138 25.8848 15.0156 15.6309C24.8138 5.37695 38.7135 0.25 56.7148 0.25V20.9287C51.474 20.9287 46.8027 21.4414 42.7012 22.4668C38.7135 23.4922 35.2956 25.3721 32.4473 28.1064C29.7129 30.8408 27.6051 34.5436 26.124 39.2148C24.6429 43.8861 23.7884 49.8105 23.5605 56.9883H56.0312V101.422H0.489258V63.3115ZM138.233 45.3672C138.803 41.1517 140.455 38.0755 143.189 36.1387C146.038 34.0879 150.823 33.0625 157.545 33.0625H169.166V9.82031H176.002V39.5566H156.861C154.241 39.5566 151.962 39.6706 150.025 39.8984C148.202 40.1263 146.607 40.5251 145.24 41.0947C143.873 41.5505 142.62 42.1201 141.48 42.8037C140.455 43.4873 139.373 44.3418 138.233 45.3672ZM37.4033 45.3672C37.973 41.1517 39.625 38.0755 42.3594 36.1387C45.2077 34.0879 49.9928 33.0625 56.7148 33.0625H68.3359V9.82031H75.1719V39.5566H56.0312C53.4108 39.5566 51.1322 39.6706 49.1953 39.8984C47.3724 40.1263 45.7773 40.5251 44.4102 41.0947C43.043 41.5505 41.7897 42.1201 40.6504 42.8037C39.625 43.4873 38.5426 44.3418 37.4033 45.3672ZM111.573 113.385H169.166V63.3115H176.002V119.879H111.573V113.385ZM10.7432 113.385H68.3359V63.3115H75.1719V119.879H10.7432V113.385Z" fill="#1B2026"/>
</svg>
